<?xml version="1.0" encoding="UTF-8"?>
<svg width="131px" height="130px" viewBox="0 0 131 130" version="1.1" xmlns="http://www.w3.org/2000/svg" xmlns:xlink="http://www.w3.org/1999/xlink">
    <!-- Generator: Sketch 50.2 (55047) - http://www.bohemiancoding.com/sketch -->
    <title>logo / element</title>
    <desc>Created with Sketch.</desc>
    <defs>
        <linearGradient x1="100%" y1="50%" x2="50%" y2="50%" id="linearGradient-1">
            <stop stop-color="#EEEEEE" stop-opacity="0" offset="0%"></stop>
            <stop stop-color="#000000" offset="96.6040462%"></stop>
        </linearGradient>
        <filter x="-9.3%" y="-72.6%" width="118.7%" height="245.1%" filterUnits="objectBoundingBox" id="filter-2">
            <feGaussianBlur stdDeviation="2.51843944" in="SourceGraphic"></feGaussianBlur>
        </filter>
        <rect id="path-3" x="10" y="9.97662338" width="86.9565217" height="86.7532468" rx="19.6124764"></rect>
        <filter x="-29.3%" y="-29.4%" width="158.7%" height="158.8%" filterUnits="objectBoundingBox" id="filter-4">
            <feOffset dx="0" dy="0" in="SourceAlpha" result="shadowOffsetOuter1"></feOffset>
            <feGaussianBlur stdDeviation="8.5" in="shadowOffsetOuter1" result="shadowBlurOuter1"></feGaussianBlur>
            <feColorMatrix values="0 0 0 0 0   0 0 0 0 0   0 0 0 0 0  0 0 0 0.0961560236 0" type="matrix" in="shadowBlurOuter1"></feColorMatrix>
        </filter>
        <linearGradient x1="86.9877204%" y1="0.304468373%" x2="0.389616773%" y2="99.9312032%" id="linearGradient-5">
            <stop stop-color="#77EFD8" offset="0%"></stop>
            <stop stop-color="#45B9F1" offset="99.93%"></stop>
        </linearGradient>
        <path d="M0.452400466,13.7055442 C0.452400466,15.4891424 0.595089122,39.1452872 0.547526237,39.7554656 C9.6796002,39.7085288 18.6214226,35.0617861 23.4728369,26.6600997 C28.3242512,18.2584134 27.7534966,8.26087597 23.1398967,0.516304748 C22.616705,0.844862315 1.97441279,12.8606819 0.452400466,13.7055442 Z" id="path-6"></path>
        <linearGradient x1="74.8785377%" y1="116.120862%" x2="137.980182%" y2="7.4571026%" id="linearGradient-8">
            <stop stop-color="#FFFFFF" stop-opacity="0" offset="0%"></stop>
            <stop stop-color="#FFFFFF" offset="100%"></stop>
        </linearGradient>
        <linearGradient x1="99.6645768%" y1="33.3094328%" x2="13.158647%" y2="66.8865147%" id="linearGradient-9">
            <stop stop-color="#B482D3" offset="0%"></stop>
            <stop stop-color="#A2ABF0" offset="99.93%"></stop>
        </linearGradient>
        <path d="M36.052667,17.7421086 C33.9123372,16.4748151 5.65998334,0.422431157 4.94654006,0 C-1.2841979,10.6077157 -1.90251541,24.2193864 4.75628852,35.5780908 C11.4150925,46.9367953 23.7338797,53.179389 36.1477928,53.179389 C36.1002299,52.2406531 36.0051041,20.0889484 36.052667,17.7421086 Z" id="path-10"></path>
        <linearGradient x1="-10.5990268%" y1="44.2351041%" x2="50%" y2="129.092644%" id="linearGradient-12">
            <stop stop-color="#FFFFFF" stop-opacity="0" offset="0%"></stop>
            <stop stop-color="#FFFFFF" offset="100%"></stop>
        </linearGradient>
        <linearGradient x1="50.0070905%" y1="100.0609%" x2="50.0070905%" y2="-0.0390998594%" id="linearGradient-13">
            <stop stop-color="#F8BF66" offset="0%"></stop>
            <stop stop-color="#F95C81" offset="100%"></stop>
        </linearGradient>
        <path d="M29.441426,33.700619 C31.4390671,32.5741359 57.9315942,17.5074246 58.6450375,17.1319303 C52.8423655,7.18132968 41.9504648,0.328557567 29.4889888,0.328557567 C17.0275129,0.328557567 6.13561219,7.22826647 0.285377311,17.1788671 C1.04638347,17.6012982 27.5389105,32.6210727 29.441426,33.700619 Z" id="path-14"></path>
        <linearGradient x1="-0.0760273973%" y1="49.9232877%" x2="81.845727%" y2="49.9232888%" id="linearGradient-16">
            <stop stop-color="#FFFFFF" offset="0%"></stop>
            <stop stop-color="#FFFFFF" stop-opacity="0" offset="100%"></stop>
        </linearGradient>
    </defs>
    <g id="logo-style" stroke="none" stroke-width="1" fill="none" fill-rule="evenodd">
        <g id="A4" transform="translate(-65.000000, -208.000000)">
            <g id="logo-/-text-/-white" transform="translate(30.000000, 220.000000)">
                <g id="logo-/-element" transform="translate(46.521739, 0.000000)"> 
                    <g id="Icon" transform="translate(53.478261, 53.353247) rotate(-15.000000) translate(-53.478261, -53.353247) ">
                        <use fill="black" fill-opacity="1" filter="url(#filter-4)" xlink:href="#path-3"></use>
                        <use fill="#FFFFFF" fill-rule="evenodd" xlink:href="#path-3"></use>
                    </g>
                    <g id="logo_element" transform="translate(20.000000, 19.976077)">
                        <g id="blue" transform="translate(38.216225, 21.825610)">
                            <mask id="mask-7" fill="white">
                                <use xlink:href="#path-6"></use>
                            </mask>
                            <use id="path-1_7_" fill="url(#linearGradient-5)" fill-rule="nonzero" xlink:href="#path-6"></use>
                            <path d="M-2.59162419,22.4827249 C-8.3467333,22.4827249 -13.0078961,17.882919 -13.0078961,12.2035668 C-13.0078961,6.52421454 -8.3467333,1.92440861 -2.59162419,1.92440861 C3.16348492,1.92440861 7.82464768,6.52421454 7.82464768,12.2035668 C7.82464768,17.882919 3.11592204,22.4827249 -2.59162419,22.4827249 Z M-2.59162419,2.25296617 C-8.15648176,2.25296617 -12.7225187,6.71196172 -12.7225187,12.2505036 C-12.7225187,17.7890454 -8.20404464,22.248041 -2.59162419,22.248041 C3.02079627,22.248041 7.53927036,17.7890454 7.53927036,12.2505036 C7.53927036,6.71196172 2.97323338,2.25296617 -2.59162419,2.25296617 Z" id="Shape" fill="url(#linearGradient-8)" fill-rule="nonzero" mask="url(#mask-7)"></path>
                            <path d="M-2.59162419,33.465935 C-14.4823455,33.465935 -24.1376112,23.9377656 -24.1376112,12.2035668 C-24.1376112,0.469367953 -14.4823455,-9.05880149 -2.59162419,-9.05880149 C9.86985174,-9.05880149 18.9543628,-0.140810386 18.9543628,12.2035668 C18.9067999,23.9377656 9.25153423,33.465935 -2.59162419,33.465935 Z M-2.59162419,-8.73024392 C-14.292094,-8.73024392 -23.8522339,0.657115134 -23.8522339,12.2505036 C-23.8522339,23.7969552 -14.3396568,33.231251 -2.59162419,33.231251 C9.15640846,33.231251 18.6689855,23.843892 18.6689855,12.2505036 C18.6214226,0.0469367953 9.6796002,-8.73024392 -2.59162419,-8.73024392 Z" id="Shape" fill="url(#linearGradient-8)" fill-rule="nonzero" mask="url(#mask-7)"></path>
                        </g>
                        <g id="violet" transform="translate(0.000000, 13.611671)">
                            <mask id="mask-11" fill="white">
                                <use xlink:href="#path-10"></use>
                            </mask>
                            <use id="Shape" fill="url(#linearGradient-9)" fill-rule="nonzero" xlink:href="#path-10"></use>
                            <path d="M35.624601,30.6966641 C29.8694919,30.6966641 25.2083292,26.0968582 25.2083292,20.4175059 C25.2083292,14.7381537 29.8694919,10.1383478 35.624601,10.1383478 C41.3797101,10.1383478 46.0408729,14.7381537 46.0408729,20.4175059 C46.0408729,26.0968582 41.3321473,30.6966641 35.624601,30.6966641 Z M35.624601,10.4669053 C30.0597435,10.4669053 25.4937065,14.9259009 25.4937065,20.4644427 C25.4937065,26.0029846 30.0121806,30.4619801 35.624601,30.4619801 C41.2370215,30.4619801 45.7554956,26.0029846 45.7554956,20.4644427 C45.7554956,14.9259009 41.1894586,10.4669053 35.624601,10.4669053 Z" id="Shape" fill="url(#linearGradient-12)" fill-rule="nonzero" mask="url(#mask-11)"></path>
                            <path d="M35.624601,41.6798742 C23.7338797,41.6798742 14.078614,32.1517048 14.078614,20.4175059 C14.078614,8.68330712 23.7338797,-0.844862315 35.624601,-0.844862315 C48.086077,-0.844862315 57.170588,8.07312879 57.170588,20.4175059 C57.1230252,32.1517048 47.4677595,41.6798742 35.624601,41.6798742 Z M35.624601,-0.516304748 C23.9241313,-0.516304748 14.3639913,8.8710543 14.3639913,20.4644427 C14.3639913,32.0108944 23.8765684,41.4451902 35.624601,41.4451902 C47.3726337,41.4451902 56.8852107,32.0578312 56.8852107,20.4644427 C56.8376478,8.26087597 47.8958254,-0.516304748 35.624601,-0.516304748 Z" id="Shape" fill="url(#linearGradient-12)" fill-rule="nonzero" mask="url(#mask-11)"></path>
                        </g>
                        <g id="red" transform="translate(6.658804, 0.000000)">
                            <mask id="mask-15" fill="white">
                                <use xlink:href="#path-14"></use>
                            </mask>
                            <use id="Shape" fill="url(#linearGradient-13)" fill-rule="nonzero" xlink:href="#path-14"></use>
                            <path d="M28.9657971,44.3083347 C23.210688,44.3083347 18.5495252,39.7085288 18.5495252,34.0291766 C18.5495252,28.3498243 23.210688,23.7500184 28.9657971,23.7500184 C34.7209062,23.7500184 39.382069,28.3498243 39.382069,34.0291766 C39.382069,39.7085288 34.6733433,44.3083347 28.9657971,44.3083347 Z M28.9657971,24.0316392 C23.4009395,24.0316392 18.8349025,28.4906347 18.8349025,34.0291766 C18.8349025,39.5677184 23.3533766,44.026714 28.9657971,44.026714 C34.5782176,44.026714 39.0966917,39.5677184 39.0966917,34.0291766 C39.0966917,28.4906347 34.5306547,24.0316392 28.9657971,24.0316392 Z" id="Shape" fill="url(#linearGradient-16)" fill-rule="nonzero" mask="url(#mask-15)"></path>
                            <path d="M28.9657971,55.244608 C17.0750758,55.244608 7.41981009,45.7164386 7.41981009,33.9822398 C7.41981009,22.248041 17.0750758,12.7198715 28.9657971,12.7198715 C41.427273,12.7198715 50.5117841,21.6378626 50.5117841,33.9822398 C50.4642212,45.7164386 40.8089555,55.244608 28.9657971,55.244608 Z M28.9657971,13.0484291 C17.2653273,13.0484291 7.70518741,22.4357881 7.70518741,34.0291766 C7.70518741,45.5756282 17.2177645,55.009924 28.9657971,55.009924 C40.7138298,55.009924 50.2264068,45.622565 50.2264068,34.0291766 C50.1788439,21.8725466 41.2370215,13.0484291 28.9657971,13.0484291 Z" id="Shape" fill="url(#linearGradient-16)" fill-rule="nonzero" mask="url(#mask-15)"></path>
                        </g>
                    </g>
                </g>
            </g>
        </g>
    </g>
</svg>